{
  "title": "The Avengers 2012 TS XviD AC3-ADTRG",
  "uid": 7273101,
  "size": 2050544482,
  "categoryP": "video",
  "categoryS": "movies",
  "magnet": "?xt=urn:btih:a9ac69a718a352dd1f7d8be2a589391585755716&amp;dn=The+Avengers+2012+TS+XviD+AC3-ADTRG&amp;tr=udp%3A%2F%2Ftracker.openbittorrent.com%3A80&amp;tr=udp%3A%2F%2Fopen.demonii.com%3A1337&amp;tr=udp%3A%2F%2Ftracker.coppersurfer.tk%3A6969&amp;tr=udp%3A%2F%2Fexodus.desync.com%3A6969",
  "seeders": 69,
  "leechers": 1,
  "uploader": "Hackulus",
  "files": -1,
  "time": 1337147129,
  "description": "[img]http://img11.imageshack.us/img11/5650/90708056.jpg[/img]\n\nNick Fury of S.H.I.E.L.D. brings together a team of super humans to form The Avengers to help save the Earth from Loki and his army, While also helping Dragon Exclusive get LiNe for this awesome movie\n\nSource -   Video  -     Chinese HDCAM  Thanks\nSource -   Audio  -     Dragon Exclusive , awesome work Bro ;)\n\nComplete name                            : The.Avengers.2012.TS.XviD.AC3-ADTRG.avi\nFormat                                   : AVI\nFile size                                : 1.90 GiB\nDuration                                 : 2h 15mn\nOverall bit rate                         : 1 999 Kbps\nWriting library                          : VirtualDub build 34703/release\n\nVideo\nID                                       : 0\nFormat                                   : MPEG-4 Visual\nCodec ID                                 : XVID\nBit rate                                 : 1 798 Kbps\nWidth                                    : 720 pixels\nHeight                                   : 320 pixels\nDisplay aspect ratio                     : 2.25:1\nFrame rate                               : 23.976 fps\nStream size                              : 1.71 GiB (90%)\n\nAudio\nID                                       : 1\nFormat                                   : AC-3\nBit rate                                 : 192 Kbps\nChannel(s)                               : 2 channels\nChannel positions                        : Front: L R\nStream size                              : 186 MiB (10%)\n\n\n\nEncoder - LiMeY\nfirst off, replaced annoying Marvel intro with clean un logo'd scene. Then blurred and subbed the Black window scene.Ran our magical filters lol, Started Syncing, 18hrs later.. went to bed and got some boom boom, thanks GF, got up, finished syncing. had a cuppa tea with my eggs on toast (over easy)\nthen checked file, looks and sounds great to me.( some very minor +/- 100ms of in one maybe two places, no biggie) Dont like , grab cam ;) .\n\nSo many new releases coming, So hot diggerty dog... lets get to work ;). \n\nOh  Enjoy ;)\n\n[img]http://imgcrave.com/u/Hmc8S.png[/img]\n[img]http://imgcrave.com/u/sb93p.png[/img]\n[img]http://imgcrave.com/u/kAcYV.png[/img]\n[img]http://imgcrave.com/u/eNDSt.png[/img]",
  "parsed": {
    "xt": "urn:btih:a9ac69a718a352dd1f7d8be2a589391585755716",
    "dn": "The Avengers 2012 TS XviD AC3-ADTRG",
    "tr": [
      "udp://exodus.desync.com:6969",
      "udp://open.demonii.com:1337",
      "udp://tracker.coppersurfer.tk:6969",
      "udp://tracker.openbittorrent.com:80"
    ],
    "infoHash": "a9ac69a718a352dd1f7d8be2a589391585755716",
    "infoHashBuffer": {
      "type": "Buffer",
      "data": [
        169,
        172,
        105,
        167,
        24,
        163,
        82,
        221,
        31,
        125,
        139,
        226,
        165,
        137,
        57,
        21,
        133,
        117,
        87,
        22
      ]
    },
    "name": "The Avengers 2012 TS XviD AC3-ADTRG",
    "announce": [
      "udp://exodus.desync.com:6969",
      "udp://open.demonii.com:1337",
      "udp://tracker.coppersurfer.tk:6969",
      "udp://tracker.openbittorrent.com:80"
    ],
    "urlList": []
  },
  "previous": 27,
  "peers": 2,
  "last_updated": "2016-12-27T09:41:26.861Z"
}